<svg width="391" height="827" viewBox="0 0 391 827" fill="none" xmlns="http://www.w3.org/2000/svg">
<g clip-path="url(#clip0_96_2261)">
<rect x="8" y="8" width="375" height="811" rx="28" fill="url(#paint0_linear_96_2261)"/>
<rect width="375" height="811" transform="translate(8 8)" fill="white"/>
<path d="M37.3004 29.4673C37.8518 29.4714 38.3951 29.572 38.9304 29.7692C39.4657 29.9664 39.9486 30.2884 40.3793 30.7351C40.8139 31.1818 41.16 31.7855 41.4176 32.5462C41.6792 33.3028 41.812 34.2446 41.8161 35.3714C41.8161 36.4541 41.7074 37.418 41.4901 38.2631C41.2727 39.1043 40.9608 39.8146 40.5543 40.3942C40.1519 40.9737 39.6629 41.4144 39.0874 41.7163C38.5118 42.0181 37.8639 42.169 37.1435 42.169C36.407 42.169 35.753 42.0241 35.1815 41.7344C34.61 41.4446 34.1451 41.0442 33.7869 40.533C33.4287 40.0179 33.2054 39.4263 33.1168 38.7582H34.9581C35.0788 39.2894 35.3243 39.7201 35.6946 40.0501C36.0689 40.3761 36.5518 40.5391 37.1435 40.5391C38.049 40.5391 38.7553 40.1446 39.2624 39.3558C39.7695 38.563 40.0251 37.4562 40.0291 36.0355H39.9325C39.7232 36.3816 39.4616 36.6795 39.1477 36.929C38.8378 37.1785 38.4897 37.3717 38.1033 37.5085C37.717 37.6454 37.3045 37.7138 36.8658 37.7138C36.1534 37.7138 35.5054 37.5387 34.9219 37.1886C34.3383 36.8384 33.8735 36.3575 33.5273 35.7457C33.1812 35.134 33.0082 34.4357 33.0082 33.6509C33.0082 32.8701 33.1853 32.1618 33.5394 31.5259C33.8976 30.89 34.3967 30.387 35.0366 30.0167C35.6805 29.6424 36.4351 29.4593 37.3004 29.4673ZM37.3065 31.0369C36.8356 31.0369 36.411 31.1536 36.0327 31.3871C35.6584 31.6165 35.3626 31.9284 35.1452 32.3228C34.9279 32.7132 34.8192 33.1478 34.8192 33.6268C34.8192 34.1057 34.9239 34.5404 35.1332 34.9308C35.3465 35.3171 35.6362 35.625 36.0025 35.8544C36.3728 36.0798 36.7953 36.1925 37.2702 36.1925C37.6244 36.1925 37.9544 36.1241 38.2603 35.9872C38.5662 35.8504 38.8338 35.6612 39.0632 35.4197C39.2926 35.1742 39.4717 34.8965 39.6005 34.5866C39.7293 34.2768 39.7937 33.9508 39.7937 33.6087C39.7937 33.1539 39.685 32.7313 39.4677 32.3409C39.2544 31.9505 38.9606 31.6366 38.5863 31.3991C38.212 31.1577 37.7854 31.0369 37.3065 31.0369ZM44.8023 40.4666C44.4723 40.4666 44.1886 40.3499 43.9511 40.1165C43.7137 39.879 43.5949 39.5933 43.5949 39.2592C43.5949 38.9292 43.7137 38.6475 43.9511 38.4141C44.1886 38.1766 44.4723 38.0579 44.8023 38.0579C45.1323 38.0579 45.4161 38.1766 45.6535 38.4141C45.891 38.6475 46.0097 38.9292 46.0097 39.2592C46.0097 39.4806 45.9534 39.6838 45.8407 39.869C45.732 40.0501 45.5871 40.195 45.406 40.3036C45.2249 40.4123 45.0237 40.4666 44.8023 40.4666ZM44.8023 34.2727C44.4723 34.2727 44.1886 34.156 43.9511 33.9226C43.7137 33.6851 43.5949 33.3994 43.5949 33.0653C43.5949 32.7353 43.7137 32.4536 43.9511 32.2202C44.1886 31.9827 44.4723 31.864 44.8023 31.864C45.1323 31.864 45.4161 31.9827 45.6535 32.2202C45.891 32.4536 46.0097 32.7353 46.0097 33.0653C46.0097 33.2867 45.9534 33.4899 45.8407 33.6751C45.732 33.8562 45.5871 34.0011 45.406 34.1097C45.2249 34.2184 45.0237 34.2727 44.8023 34.2727ZM47.7358 39.5852V38.076L53.0784 29.6364H54.2677V31.858H53.5131L49.6917 37.907V38.0036H57.0145V39.5852H47.7358ZM53.5976 42V39.1264L53.6097 38.4382V29.6364H55.3785V42H53.5976ZM63.2351 29.6364V42H61.3636V31.5078H61.2912L58.3331 33.4396V31.6527L61.418 29.6364H63.2351Z" fill="#1E1E22"/>
<path opacity="0.35" d="M335.813 28.5H352.813C354.746 28.5 356.313 30.067 356.313 32V37C356.313 38.933 354.746 40.5 352.813 40.5H335.813C333.88 40.5 332.313 38.933 332.313 37V32C332.313 30.067 333.88 28.5 335.813 28.5Z" stroke="#1E1E22"/>
<path opacity="0.4" d="M357.813 33V37.2203C358.662 36.8629 359.214 36.0314 359.214 35.1102C359.214 34.1889 358.662 33.3574 357.813 33Z" fill="#1E1E22"/>
<path d="M333.813 32C333.813 30.8954 334.708 30 335.813 30H352.813C353.917 30 354.813 30.8954 354.813 32V37C354.813 38.1046 353.917 39 352.813 39H335.813C334.708 39 333.813 38.1046 333.813 37V32Z" fill="#1E1E22"/>
<path d="M314.067 37.9189C315.476 36.6933 317.54 36.6934 318.948 37.9189C319.019 37.9849 319.061 38.0785 319.062 38.1768C319.064 38.2749 319.027 38.3696 318.959 38.4385L316.753 40.7285C316.688 40.7958 316.6 40.834 316.508 40.834C316.416 40.8339 316.327 40.7958 316.263 40.7285L314.057 38.4385C313.989 38.3696 313.951 38.2749 313.953 38.1768C313.955 38.0785 313.996 37.9848 314.067 37.9189ZM311.085 35.1787C314.12 32.2741 318.821 32.2741 321.856 35.1787C321.925 35.2468 321.964 35.3406 321.965 35.4385C321.966 35.5364 321.928 35.6308 321.861 35.7002L320.586 37.0254C320.455 37.1607 320.242 37.1638 320.107 37.0322C319.111 36.1038 317.814 35.5899 316.47 35.5898C315.126 35.5904 313.83 36.1043 312.834 37.0322C312.699 37.1639 312.487 37.1607 312.355 37.0254L311.08 35.7002C311.013 35.6308 310.976 35.5364 310.977 35.4385C310.977 35.3406 311.017 35.2468 311.085 35.1787ZM308.106 32.4424C312.762 27.8527 320.105 27.8528 324.761 32.4424C324.828 32.5106 324.867 32.6039 324.867 32.7012C324.868 32.7983 324.83 32.892 324.764 32.9609L323.487 34.2861C323.356 34.422 323.142 34.4238 323.009 34.29C321.235 32.5554 318.882 31.5881 316.435 31.5879C313.987 31.5879 311.632 32.5552 309.858 34.29C309.725 34.4239 309.511 34.4223 309.38 34.2861L308.103 32.9609C308.036 32.892 308 32.7982 308 32.7012C308.001 32.6039 308.039 32.5105 308.106 32.4424Z" fill="#1E1E22"/>
<mask id="mask0_96_2261" style="mask-type:alpha" maskUnits="userSpaceOnUse" x="28" y="97" width="32" height="32">
<rect x="28" y="97" width="32" height="32" fill="#D9D9D9"/>
</mask>
<g mask="url(#mask0_96_2261)">
<path d="M37.5821 114L41.9718 118.39C42.1701 118.588 42.268 118.82 42.2654 119.086C42.2628 119.352 42.165 119.588 41.9718 119.795C41.765 120.002 41.5274 120.109 41.259 120.115C40.9907 120.122 40.7531 120.022 40.5462 119.815L34.5744 113.844C34.3334 113.603 34.2129 113.321 34.2129 113C34.2129 112.679 34.3334 112.397 34.5744 112.156L40.5462 106.185C40.7445 105.986 40.98 105.888 41.2526 105.891C41.5253 105.894 41.765 105.998 41.9718 106.205C42.165 106.412 42.265 106.646 42.2718 106.908C42.2787 107.169 42.1787 107.403 41.9718 107.61L37.5821 112H53.2693C53.553 112 53.7906 112.096 53.9821 112.287C54.1735 112.479 54.2693 112.716 54.2693 113C54.2693 113.284 54.1735 113.521 53.9821 113.713C53.7906 113.904 53.553 114 53.2693 114H37.5821Z" fill="#1E1E22"/>
</g>
<path d="M77.328 117V105.8H82.424C83.3573 105.8 84.0933 105.963 84.632 106.288C85.176 106.608 85.5627 107.032 85.792 107.56C86.0267 108.088 86.144 108.656 86.144 109.264C86.144 109.685 86.0613 110.112 85.896 110.544C85.736 110.976 85.4907 111.365 85.16 111.712C84.8293 112.059 84.4133 112.315 83.912 112.48L86.12 117H83.792L81.672 112.76H79.4V117H77.328ZM79.4 110.808H82.456C82.8453 110.808 83.152 110.736 83.376 110.592C83.6053 110.443 83.768 110.251 83.864 110.016C83.96 109.781 84.008 109.533 84.008 109.272C84.008 109.037 83.9627 108.803 83.872 108.568C83.7813 108.333 83.624 108.139 83.4 107.984C83.176 107.829 82.8613 107.752 82.456 107.752H79.4V110.808ZM90.3046 117.192C89.414 117.192 88.7073 116.952 88.1846 116.472C87.6673 115.987 87.4086 115.331 87.4086 114.504C87.4086 113.971 87.542 113.504 87.8086 113.104C88.0806 112.699 88.4566 112.387 88.9366 112.168C89.422 111.944 89.9873 111.832 90.6326 111.832C90.99 111.832 91.334 111.867 91.6646 111.936C92.0006 112 92.294 112.093 92.5446 112.216V111.704C92.5446 111.245 92.414 110.901 92.1526 110.672C91.8966 110.437 91.518 110.32 91.0166 110.32C90.6166 110.32 90.206 110.392 89.7846 110.536C89.3633 110.68 88.9366 110.893 88.5046 111.176L87.9046 109.6C88.374 109.291 88.8966 109.053 89.4726 108.888C90.0486 108.717 90.63 108.632 91.2166 108.632C92.3153 108.632 93.1366 108.893 93.6806 109.416C94.2246 109.933 94.4966 110.707 94.4966 111.736V117H92.5446V116.344C92.2673 116.621 91.9366 116.832 91.5526 116.976C91.174 117.12 90.758 117.192 90.3046 117.192ZM90.7686 115.504C91.0993 115.504 91.4166 115.44 91.7206 115.312C92.03 115.179 92.3046 114.992 92.5446 114.752V113.784C92.3153 113.672 92.0593 113.587 91.7766 113.528C91.4993 113.464 91.222 113.432 90.9446 113.432C90.4486 113.432 90.0566 113.528 89.7686 113.72C89.486 113.907 89.3446 114.168 89.3446 114.504C89.3446 114.819 89.47 115.064 89.7206 115.24C89.9713 115.416 90.3206 115.504 90.7686 115.504ZM96.8886 117V108.824H98.8886V109.584C99.15 109.253 99.4433 109.013 99.7686 108.864C100.099 108.709 100.473 108.632 100.889 108.632C101.374 108.632 101.79 108.731 102.137 108.928C102.483 109.125 102.753 109.413 102.945 109.792C103.217 109.419 103.566 109.133 103.993 108.936C104.419 108.733 104.902 108.632 105.441 108.632C106.443 108.632 107.201 108.901 107.713 109.44C108.225 109.979 108.481 110.779 108.481 111.84V117H106.489V112.528C106.489 111.845 106.377 111.344 106.153 111.024C105.929 110.699 105.582 110.536 105.113 110.536C104.793 110.536 104.526 110.608 104.313 110.752C104.105 110.896 103.947 111.115 103.841 111.408C103.734 111.696 103.681 112.061 103.681 112.504V117H101.689V112.528C101.689 111.84 101.579 111.336 101.361 111.016C101.142 110.696 100.795 110.536 100.321 110.536C99.8353 110.536 99.4753 110.693 99.2406 111.008C99.006 111.323 98.8886 111.811 98.8886 112.472V117H96.8886ZM114.278 117.192C113.126 117.192 112.217 116.811 111.55 116.048C110.884 115.285 110.55 114.243 110.55 112.92C110.55 112.045 110.702 111.288 111.006 110.648C111.31 110.003 111.74 109.507 112.294 109.16C112.854 108.808 113.516 108.632 114.278 108.632C115.036 108.632 115.692 108.805 116.246 109.152C116.801 109.499 117.228 109.992 117.526 110.632C117.825 111.272 117.974 112.032 117.974 112.912C117.974 113.797 117.825 114.56 117.526 115.2C117.233 115.84 116.809 116.333 116.254 116.68C115.7 117.021 115.041 117.192 114.278 117.192ZM114.278 115.28C114.817 115.28 115.236 115.072 115.534 114.656C115.833 114.24 115.982 113.659 115.982 112.912C115.982 112.165 115.83 111.584 115.526 111.168C115.228 110.747 114.812 110.536 114.278 110.536C113.74 110.536 113.318 110.747 113.014 111.168C112.71 111.589 112.558 112.173 112.558 112.92C112.558 113.656 112.71 114.235 113.014 114.656C113.318 115.072 113.74 115.28 114.278 115.28ZM128.389 117.176C127.52 117.176 126.784 117.008 126.181 116.672C125.584 116.336 125.101 115.891 124.733 115.336C124.37 114.776 124.106 114.155 123.941 113.472C123.776 112.789 123.693 112.099 123.693 111.4C123.693 110.739 123.776 110.069 123.941 109.392C124.112 108.709 124.381 108.083 124.749 107.512C125.122 106.936 125.608 106.475 126.205 106.128C126.802 105.781 127.53 105.608 128.389 105.608C129.098 105.608 129.714 105.728 130.237 105.968C130.76 106.203 131.192 106.509 131.533 106.888C131.88 107.261 132.144 107.653 132.325 108.064L130.469 108.928C130.288 108.651 130.101 108.413 129.909 108.216C129.717 108.013 129.498 107.859 129.253 107.752C129.013 107.64 128.725 107.584 128.389 107.584C127.909 107.584 127.506 107.701 127.181 107.936C126.856 108.165 126.594 108.469 126.397 108.848C126.2 109.227 126.058 109.64 125.973 110.088C125.888 110.536 125.845 110.973 125.845 111.4C125.845 111.853 125.893 112.304 125.989 112.752C126.085 113.2 126.237 113.608 126.445 113.976C126.653 114.344 126.917 114.64 127.237 114.864C127.557 115.083 127.941 115.192 128.389 115.192C128.869 115.192 129.272 115.059 129.597 114.792C129.928 114.52 130.221 114.173 130.477 113.752L132.373 114.464C132.133 114.981 131.832 115.445 131.469 115.856C131.106 116.267 130.672 116.589 130.165 116.824C129.658 117.059 129.066 117.176 128.389 117.176ZM134.264 117V106.368L136.264 105.448V109.616C136.525 109.285 136.837 109.04 137.2 108.88C137.568 108.715 137.986 108.632 138.456 108.632C139.085 108.632 139.61 108.765 140.032 109.032C140.458 109.293 140.778 109.669 140.992 110.16C141.205 110.645 141.312 111.227 141.312 111.904V117H139.32V112.52C139.32 111.848 139.205 111.349 138.976 111.024C138.746 110.699 138.373 110.536 137.856 110.536C137.312 110.536 136.909 110.696 136.648 111.016C136.392 111.331 136.264 111.821 136.264 112.488V117H134.264ZM146.164 117.192C145.273 117.192 144.567 116.952 144.044 116.472C143.527 115.987 143.268 115.331 143.268 114.504C143.268 113.971 143.401 113.504 143.668 113.104C143.94 112.699 144.316 112.387 144.796 112.168C145.281 111.944 145.847 111.832 146.492 111.832C146.849 111.832 147.193 111.867 147.524 111.936C147.86 112 148.153 112.093 148.404 112.216V111.704C148.404 111.245 148.273 110.901 148.012 110.672C147.756 110.437 147.377 110.32 146.876 110.32C146.476 110.32 146.065 110.392 145.644 110.536C145.223 110.68 144.796 110.893 144.364 111.176L143.764 109.6C144.233 109.291 144.756 109.053 145.332 108.888C145.908 108.717 146.489 108.632 147.076 108.632C148.175 108.632 148.996 108.893 149.54 109.416C150.084 109.933 150.356 110.707 150.356 111.736V117H148.404V116.344C148.127 116.621 147.796 116.832 147.412 116.976C147.033 117.12 146.617 117.192 146.164 117.192ZM146.628 115.504C146.959 115.504 147.276 115.44 147.58 115.312C147.889 115.179 148.164 114.992 148.404 114.752V113.784C148.175 113.672 147.919 113.587 147.636 113.528C147.359 113.464 147.081 113.432 146.804 113.432C146.308 113.432 145.916 113.528 145.628 113.72C145.345 113.907 145.204 114.168 145.204 114.504C145.204 114.819 145.329 115.064 145.58 115.24C145.831 115.416 146.18 115.504 146.628 115.504ZM152.734 117V106.352L154.734 105.448V117H152.734ZM157.391 117V106.352L159.391 105.448V117H157.391ZM165.335 117.192C164.551 117.192 163.873 117.016 163.303 116.664C162.737 116.312 162.3 115.816 161.991 115.176C161.687 114.531 161.535 113.773 161.535 112.904C161.535 112.024 161.689 111.264 161.999 110.624C162.313 109.984 162.753 109.493 163.319 109.152C163.889 108.805 164.561 108.632 165.335 108.632C165.996 108.632 166.596 108.771 167.135 109.048C167.673 109.325 168.103 109.752 168.423 110.328C168.743 110.899 168.903 111.627 168.903 112.512C168.903 112.651 168.897 112.821 168.887 113.024C168.881 113.221 168.868 113.421 168.847 113.624H163.511C163.532 113.997 163.617 114.325 163.767 114.608C163.921 114.885 164.132 115.101 164.399 115.256C164.665 115.411 164.98 115.488 165.343 115.488C165.732 115.488 166.071 115.424 166.359 115.296C166.647 115.163 166.919 114.952 167.175 114.664L168.327 115.856C167.975 116.256 167.551 116.579 167.055 116.824C166.559 117.069 165.985 117.192 165.335 117.192ZM163.519 112.064H166.967C166.94 111.707 166.86 111.4 166.727 111.144C166.593 110.883 166.407 110.683 166.167 110.544C165.927 110.405 165.636 110.336 165.295 110.336C164.825 110.336 164.425 110.48 164.095 110.768C163.764 111.056 163.572 111.488 163.519 112.064ZM170.92 117V108.824H172.92V109.608C173.181 109.283 173.493 109.04 173.856 108.88C174.224 108.715 174.643 108.632 175.112 108.632C176.024 108.632 176.728 108.915 177.224 109.48C177.72 110.04 177.968 110.848 177.968 111.904V117H175.976V112.52C175.976 111.832 175.856 111.331 175.616 111.016C175.381 110.696 175.013 110.536 174.512 110.536C173.968 110.536 173.565 110.696 173.304 111.016C173.048 111.331 172.92 111.821 172.92 112.488V117H170.92ZM183.355 120.408L182.251 118.736C183.029 118.677 183.632 118.589 184.059 118.472C184.491 118.355 184.792 118.187 184.963 117.968C185.133 117.749 185.219 117.464 185.219 117.112V116.52C184.803 116.968 184.216 117.192 183.459 117.192C182.749 117.192 182.139 117.021 181.627 116.68C181.115 116.333 180.72 115.84 180.443 115.2C180.171 114.555 180.035 113.789 180.035 112.904C180.035 112.04 180.176 111.288 180.459 110.648C180.747 110.008 181.147 109.512 181.659 109.16C182.176 108.808 182.781 108.632 183.475 108.632C183.837 108.632 184.168 108.688 184.467 108.8C184.771 108.912 185.021 109.075 185.219 109.288V108.824H187.211V116.264C187.211 116.989 187.144 117.603 187.011 118.104C186.877 118.605 186.659 119.016 186.355 119.336C186.056 119.656 185.661 119.899 185.171 120.064C184.68 120.235 184.075 120.349 183.355 120.408ZM183.787 115.28C184.069 115.28 184.333 115.216 184.579 115.088C184.829 114.955 185.043 114.776 185.219 114.552V111.256C185.069 111.048 184.864 110.877 184.603 110.744C184.341 110.605 184.077 110.536 183.811 110.536C183.235 110.536 182.795 110.739 182.491 111.144C182.192 111.544 182.043 112.131 182.043 112.904C182.043 113.405 182.109 113.835 182.243 114.192C182.381 114.544 182.581 114.813 182.843 115C183.104 115.187 183.419 115.28 183.787 115.28ZM192.913 117.192C192.129 117.192 191.452 117.016 190.881 116.664C190.316 116.312 189.878 115.816 189.569 115.176C189.265 114.531 189.113 113.773 189.113 112.904C189.113 112.024 189.268 111.264 189.577 110.624C189.892 109.984 190.332 109.493 190.897 109.152C191.468 108.805 192.14 108.632 192.913 108.632C193.574 108.632 194.174 108.771 194.713 109.048C195.252 109.325 195.681 109.752 196.001 110.328C196.321 110.899 196.481 111.627 196.481 112.512C196.481 112.651 196.476 112.821 196.465 113.024C196.46 113.221 196.446 113.421 196.425 113.624H191.089C191.11 113.997 191.196 114.325 191.345 114.608C191.5 114.885 191.71 115.101 191.977 115.256C192.244 115.411 192.558 115.488 192.921 115.488C193.31 115.488 193.649 115.424 193.937 115.296C194.225 115.163 194.497 114.952 194.753 114.664L195.905 115.856C195.553 116.256 195.129 116.579 194.633 116.824C194.137 117.069 193.564 117.192 192.913 117.192ZM191.097 112.064H194.545C194.518 111.707 194.438 111.4 194.305 111.144C194.172 110.883 193.985 110.683 193.745 110.544C193.505 110.405 193.214 110.336 192.873 110.336C192.404 110.336 192.004 110.48 191.673 110.768C191.342 111.056 191.15 111.488 191.097 112.064Z" fill="#1E1E22"/>
<path d="M343.02 103.91C339.71 103.91 337.02 106.6 337.02 109.91V112.8C337.02 113.41 336.76 114.34 336.45 114.86L335.3 116.77C334.59 117.95 335.08 119.26 336.38 119.7C340.69 121.14 345.34 121.14 349.65 119.7C350.86 119.3 351.39 117.87 350.73 116.77L349.58 114.86C349.28 114.34 349.02 113.41 349.02 112.8V109.91C349.02 106.61 346.32 103.91 343.02 103.91Z" stroke="#1E1E22" stroke-width="1.5" stroke-miterlimit="10" stroke-linecap="round"/>
<path d="M344.87 104.2C344.56 104.11 344.24 104.04 343.91 104C342.95 103.88 342.03 103.95 341.17 104.2C341.46 103.46 342.18 102.94 343.02 102.94C343.86 102.94 344.58 103.46 344.87 104.2Z" stroke="#1E1E22" stroke-width="1.5" stroke-miterlimit="10" stroke-linecap="round" stroke-linejoin="round"/>
<path d="M346.02 120.06C346.02 121.71 344.67 123.06 343.02 123.06C342.2 123.06 341.44 122.72 340.9 122.18C340.36 121.64 340.02 120.88 340.02 120.06" stroke="#1E1E22" stroke-width="1.5" stroke-miterlimit="10"/>
<circle cx="348" cy="108" r="4" fill="#FC0230" stroke="white" stroke-width="2"/>
<path d="M82.6443 183V166.2H93.8163V169.152H85.7523V172.848H90.9123V175.8H85.7523V183H82.6443ZM99.4683 183.288C97.7403 183.288 96.3763 182.716 95.3763 181.572C94.3763 180.428 93.8763 178.864 93.8763 176.88C93.8763 175.568 94.1043 174.432 94.5603 173.472C95.0163 172.504 95.6603 171.76 96.4923 171.24C97.3323 170.712 98.3243 170.448 99.4683 170.448C100.604 170.448 101.588 170.708 102.42 171.228C103.252 171.748 103.892 172.488 104.34 173.448C104.788 174.408 105.012 175.548 105.012 176.868C105.012 178.196 104.788 179.34 104.34 180.3C103.9 181.26 103.264 182 102.432 182.52C101.6 183.032 100.612 183.288 99.4683 183.288ZM99.4683 180.42C100.276 180.42 100.904 180.108 101.352 179.484C101.8 178.86 102.024 177.988 102.024 176.868C102.024 175.748 101.796 174.876 101.34 174.252C100.892 173.62 100.268 173.304 99.4683 173.304C98.6603 173.304 98.0283 173.62 97.5723 174.252C97.1163 174.884 96.8883 175.76 96.8883 176.88C96.8883 177.984 97.1163 178.852 97.5723 179.484C98.0283 180.108 98.6603 180.42 99.4683 180.42ZM111.483 183.288C110.507 183.288 109.775 183.02 109.287 182.484C108.799 181.948 108.555 181.148 108.555 180.084V173.364H106.767V170.736H108.555V167.1L111.531 165.672V170.736H114.315V173.364H111.531V179.544C111.531 179.928 111.607 180.212 111.759 180.396C111.919 180.58 112.167 180.672 112.503 180.672C113.095 180.672 113.743 180.488 114.447 180.12L114.099 182.736C113.731 182.92 113.331 183.056 112.899 183.144C112.467 183.24 111.995 183.288 111.483 183.288ZM122.156 183.288C120.428 183.288 119.064 182.716 118.064 181.572C117.064 180.428 116.564 178.864 116.564 176.88C116.564 175.568 116.792 174.432 117.248 173.472C117.704 172.504 118.348 171.76 119.18 171.24C120.02 170.712 121.012 170.448 122.156 170.448C123.292 170.448 124.276 170.708 125.108 171.228C125.94 171.748 126.58 172.488 127.028 173.448C127.476 174.408 127.7 175.548 127.7 176.868C127.7 178.196 127.476 179.34 127.028 180.3C126.588 181.26 125.952 182 125.12 182.52C124.288 183.032 123.3 183.288 122.156 183.288ZM122.156 180.42C122.964 180.42 123.592 180.108 124.04 179.484C124.488 178.86 124.712 177.988 124.712 176.868C124.712 175.748 124.484 174.876 124.028 174.252C123.58 173.62 122.956 173.304 122.156 173.304C121.348 173.304 120.716 173.62 120.26 174.252C119.804 174.884 119.576 175.76 119.576 176.88C119.576 177.984 119.804 178.852 120.26 179.484C120.716 180.108 121.348 180.42 122.156 180.42ZM135.278 188.112L133.622 185.604C134.79 185.516 135.694 185.384 136.334 185.208C136.982 185.032 137.434 184.78 137.69 184.452C137.946 184.124 138.074 183.696 138.074 183.168V182.28C137.45 182.952 136.57 183.288 135.434 183.288C134.37 183.288 133.454 183.032 132.686 182.52C131.918 182 131.326 181.26 130.91 180.3C130.502 179.332 130.298 178.184 130.298 176.856C130.298 175.56 130.51 174.432 130.934 173.472C131.366 172.512 131.966 171.768 132.734 171.24C133.51 170.712 134.418 170.448 135.458 170.448C136.002 170.448 136.498 170.532 136.946 170.7C137.402 170.868 137.778 171.112 138.074 171.432V170.736H141.062V181.896C141.062 182.984 140.962 183.904 140.762 184.656C140.562 185.408 140.234 186.024 139.778 186.504C139.33 186.984 138.738 187.348 138.002 187.596C137.266 187.852 136.358 188.024 135.278 188.112ZM135.926 180.42C136.35 180.42 136.746 180.324 137.114 180.132C137.49 179.932 137.81 179.664 138.074 179.328V174.384C137.85 174.072 137.542 173.816 137.15 173.616C136.758 173.408 136.362 173.304 135.962 173.304C135.098 173.304 134.438 173.608 133.982 174.216C133.534 174.816 133.31 175.696 133.31 176.856C133.31 177.608 133.41 178.252 133.61 178.788C133.818 179.316 134.118 179.72 134.51 180C134.902 180.28 135.374 180.42 135.926 180.42ZM144.821 183V170.736H147.821V172.056C148.045 171.584 148.397 171.2 148.877 170.904C149.357 170.6 149.861 170.448 150.389 170.448C151.261 170.448 151.997 170.748 152.597 171.348L152.177 174.096C151.849 173.824 151.529 173.632 151.217 173.52C150.905 173.408 150.561 173.352 150.185 173.352C149.689 173.352 149.265 173.468 148.913 173.7C148.561 173.932 148.289 174.268 148.097 174.708C147.913 175.148 147.821 175.676 147.821 176.292V183H144.821ZM158.172 183.288C156.836 183.288 155.776 182.928 154.992 182.208C154.216 181.48 153.828 180.496 153.828 179.256C153.828 178.456 154.028 177.756 154.428 177.156C154.836 176.548 155.4 176.08 156.12 175.752C156.848 175.416 157.696 175.248 158.664 175.248C159.2 175.248 159.716 175.3 160.212 175.404C160.716 175.5 161.156 175.64 161.532 175.824V175.056C161.532 174.368 161.336 173.852 160.944 173.508C160.56 173.156 159.992 172.98 159.24 172.98C158.64 172.98 158.024 173.088 157.392 173.304C156.76 173.52 156.12 173.84 155.472 174.264L154.572 171.9C155.276 171.436 156.06 171.08 156.924 170.832C157.788 170.576 158.66 170.448 159.54 170.448C161.188 170.448 162.42 170.84 163.236 171.624C164.052 172.4 164.46 173.56 164.46 175.104V183H161.532V182.016C161.116 182.432 160.62 182.748 160.044 182.964C159.476 183.18 158.852 183.288 158.172 183.288ZM158.868 180.756C159.364 180.756 159.84 180.66 160.296 180.468C160.76 180.268 161.172 179.988 161.532 179.628V178.176C161.188 178.008 160.804 177.88 160.38 177.792C159.964 177.696 159.548 177.648 159.132 177.648C158.388 177.648 157.8 177.792 157.368 178.08C156.944 178.36 156.732 178.752 156.732 179.256C156.732 179.728 156.92 180.096 157.296 180.36C157.672 180.624 158.196 180.756 158.868 180.756ZM168.579 183V173.364H166.851V170.736H168.579V168.84C168.579 167.88 168.831 167.152 169.335 166.656C169.847 166.16 170.587 165.912 171.555 165.912C172.099 165.912 172.583 165.964 173.007 166.068C173.439 166.164 173.851 166.312 174.243 166.512V168.96C173.915 168.824 173.603 168.72 173.307 168.648C173.011 168.568 172.739 168.528 172.491 168.528C172.187 168.528 171.959 168.604 171.807 168.756C171.655 168.9 171.579 169.124 171.579 169.428V170.736H174.243V173.364H171.579V183H168.579ZM176.626 183V170.736H179.626V183H176.626ZM175.762 169.176L179.17 165.432H182.914L178.642 169.176H175.762ZM187.023 183.288C185.687 183.288 184.627 182.928 183.843 182.208C183.067 181.48 182.679 180.496 182.679 179.256C182.679 178.456 182.879 177.756 183.279 177.156C183.687 176.548 184.251 176.08 184.971 175.752C185.699 175.416 186.547 175.248 187.515 175.248C188.051 175.248 188.567 175.3 189.063 175.404C189.567 175.5 190.007 175.64 190.383 175.824V175.056C190.383 174.368 190.187 173.852 189.795 173.508C189.411 173.156 188.843 172.98 188.091 172.98C187.491 172.98 186.875 173.088 186.243 173.304C185.611 173.52 184.971 173.84 184.323 174.264L183.423 171.9C184.127 171.436 184.911 171.08 185.775 170.832C186.639 170.576 187.511 170.448 188.391 170.448C190.039 170.448 191.271 170.84 192.087 171.624C192.903 172.4 193.311 173.56 193.311 175.104V183H190.383V182.016C189.967 182.432 189.471 182.748 188.895 182.964C188.327 183.18 187.703 183.288 187.023 183.288ZM187.719 180.756C188.215 180.756 188.691 180.66 189.147 180.468C189.611 180.268 190.023 179.988 190.383 179.628V178.176C190.039 178.008 189.655 177.88 189.231 177.792C188.815 177.696 188.399 177.648 187.983 177.648C187.239 177.648 186.651 177.792 186.219 178.08C185.795 178.36 185.583 178.752 185.583 179.256C185.583 179.728 185.771 180.096 186.147 180.36C186.523 180.624 187.047 180.756 187.719 180.756ZM200.646 183L207.042 166.2H209.994L216.414 183H213.066L211.734 179.448H205.314L204.006 183H200.646ZM206.322 176.604H210.702L209.022 172.104C208.966 171.968 208.906 171.816 208.842 171.648C208.778 171.48 208.718 171.312 208.662 171.144C208.606 170.968 208.558 170.816 208.518 170.688C208.478 170.816 208.43 170.968 208.374 171.144C208.318 171.312 208.258 171.48 208.194 171.648C208.13 171.816 208.07 171.968 208.014 172.104L206.322 176.604ZM219.001 183V170.736H222.001V171.876C222.393 171.38 222.833 171.02 223.321 170.796C223.817 170.564 224.377 170.448 225.001 170.448C225.729 170.448 226.353 170.596 226.873 170.892C227.393 171.188 227.797 171.62 228.085 172.188C228.493 171.628 229.017 171.2 229.657 170.904C230.297 170.6 231.021 170.448 231.829 170.448C233.333 170.448 234.469 170.852 235.237 171.66C236.005 172.468 236.389 173.668 236.389 175.26V183H233.401V176.292C233.401 175.268 233.233 174.516 232.897 174.036C232.561 173.548 232.041 173.304 231.337 173.304C230.857 173.304 230.457 173.412 230.137 173.628C229.825 173.844 229.589 174.172 229.429 174.612C229.269 175.044 229.189 175.592 229.189 176.256V183H226.201V176.292C226.201 175.26 226.037 174.504 225.709 174.024C225.381 173.544 224.861 173.304 224.149 173.304C223.421 173.304 222.881 173.54 222.529 174.012C222.177 174.484 222.001 175.216 222.001 176.208V183H219.001ZM243.672 183.288C242.336 183.288 241.276 182.928 240.492 182.208C239.716 181.48 239.328 180.496 239.328 179.256C239.328 178.456 239.528 177.756 239.928 177.156C240.336 176.548 240.9 176.08 241.62 175.752C242.348 175.416 243.196 175.248 244.164 175.248C244.7 175.248 245.216 175.3 245.712 175.404C246.216 175.5 246.656 175.64 247.032 175.824V175.056C247.032 174.368 246.836 173.852 246.444 173.508C246.06 173.156 245.492 172.98 244.74 172.98C244.14 172.98 243.524 173.088 242.892 173.304C242.26 173.52 241.62 173.84 240.972 174.264L240.072 171.9C240.776 171.436 241.56 171.08 242.424 170.832C243.288 170.576 244.16 170.448 245.04 170.448C246.688 170.448 247.92 170.84 248.736 171.624C249.552 172.4 249.96 173.56 249.96 175.104V183H247.032V182.016C246.616 182.432 246.12 182.748 245.544 182.964C244.976 183.18 244.352 183.288 243.672 183.288ZM244.368 180.756C244.864 180.756 245.34 180.66 245.796 180.468C246.26 180.268 246.672 179.988 247.032 179.628V178.176C246.688 178.008 246.304 177.88 245.88 177.792C245.464 177.696 245.048 177.648 244.632 177.648C243.888 177.648 243.3 177.792 242.868 178.08C242.444 178.36 242.232 178.752 242.232 179.256C242.232 179.728 242.42 180.096 242.796 180.36C243.172 180.624 243.696 180.756 244.368 180.756ZM253.548 183V170.736H256.548V171.912C256.94 171.424 257.408 171.06 257.952 170.82C258.504 170.572 259.132 170.448 259.836 170.448C261.204 170.448 262.26 170.872 263.004 171.72C263.748 172.56 264.12 173.772 264.12 175.356V183H261.132V176.28C261.132 175.248 260.952 174.496 260.592 174.024C260.24 173.544 259.688 173.304 258.936 173.304C258.12 173.304 257.516 173.544 257.124 174.024C256.74 174.496 256.548 175.232 256.548 176.232V183H253.548ZM272.728 183.288C271.6 183.288 270.624 183.028 269.8 182.508C268.976 181.988 268.34 181.252 267.892 180.3C267.444 179.34 267.22 178.2 267.22 176.88C267.22 175.56 267.444 174.42 267.892 173.46C268.348 172.5 268.992 171.76 269.824 171.24C270.656 170.712 271.636 170.448 272.764 170.448C274.036 170.448 275.092 170.744 275.932 171.336C276.78 171.92 277.392 172.788 277.768 173.94L274.924 174.9C274.732 174.388 274.452 173.996 274.084 173.724C273.716 173.444 273.292 173.304 272.812 173.304C272.036 173.304 271.416 173.624 270.952 174.264C270.496 174.904 270.268 175.776 270.268 176.88C270.268 177.968 270.492 178.832 270.94 179.472C271.388 180.112 271.992 180.432 272.752 180.432C273.288 180.432 273.744 180.28 274.12 179.976C274.504 179.672 274.788 179.228 274.972 178.644L277.804 179.496C277.444 180.752 276.832 181.7 275.968 182.34C275.112 182.972 274.032 183.288 272.728 183.288ZM285.858 183.288C284.682 183.288 283.666 183.024 282.81 182.496C281.962 181.968 281.306 181.224 280.842 180.264C280.386 179.296 280.158 178.16 280.158 176.856C280.158 175.536 280.39 174.396 280.854 173.436C281.326 172.476 281.986 171.74 282.834 171.228C283.69 170.708 284.698 170.448 285.858 170.448C286.85 170.448 287.75 170.656 288.558 171.072C289.366 171.488 290.01 172.128 290.49 172.992C290.97 173.848 291.21 174.94 291.21 176.268C291.21 176.476 291.202 176.732 291.186 177.036C291.178 177.332 291.158 177.632 291.126 177.936H283.122C283.154 178.496 283.282 178.988 283.506 179.412C283.738 179.828 284.054 180.152 284.454 180.384C284.854 180.616 285.326 180.732 285.87 180.732C286.454 180.732 286.962 180.636 287.394 180.444C287.826 180.244 288.234 179.928 288.618 179.496L290.346 181.284C289.818 181.884 289.182 182.368 288.438 182.736C287.694 183.104 286.834 183.288 285.858 183.288ZM283.134 175.596H288.306C288.266 175.06 288.146 174.6 287.946 174.216C287.746 173.824 287.466 173.524 287.106 173.316C286.746 173.108 286.31 173.004 285.798 173.004C285.094 173.004 284.494 173.22 283.998 173.652C283.502 174.084 283.214 174.732 283.134 175.596ZM294.235 183V170.736H297.235V172.056C297.459 171.584 297.811 171.2 298.291 170.904C298.771 170.6 299.275 170.448 299.803 170.448C300.675 170.448 301.411 170.748 302.011 171.348L301.591 174.096C301.263 173.824 300.943 173.632 300.631 173.52C300.319 173.408 299.975 173.352 299.599 173.352C299.103 173.352 298.679 173.468 298.327 173.7C297.975 173.932 297.703 174.268 297.511 174.708C297.327 175.148 297.235 175.676 297.235 176.292V183H294.235Z" fill="#1E1E22"/>
<circle cx="191.5" cy="376" r="144" fill="#F3F6FB"/>
<rect x="28" y="552" width="327" height="56" rx="16" fill="#FC0230"/>
<path d="M153.768 584V574.792H150.592V572.8H159.032V574.792H155.84V584H153.768ZM162.771 584.192C161.619 584.192 160.709 583.811 160.043 583.048C159.376 582.285 159.043 581.243 159.043 579.92C159.043 579.045 159.195 578.288 159.499 577.648C159.803 577.003 160.232 576.507 160.787 576.16C161.347 575.808 162.008 575.632 162.771 575.632C163.528 575.632 164.184 575.805 164.739 576.152C165.293 576.499 165.72 576.992 166.019 577.632C166.317 578.272 166.467 579.032 166.467 579.912C166.467 580.797 166.317 581.56 166.019 582.2C165.725 582.84 165.301 583.333 164.747 583.68C164.192 584.021 163.533 584.192 162.771 584.192ZM162.771 582.28C163.309 582.28 163.728 582.072 164.027 581.656C164.325 581.24 164.475 580.659 164.475 579.912C164.475 579.165 164.323 578.584 164.019 578.168C163.72 577.747 163.304 577.536 162.771 577.536C162.232 577.536 161.811 577.747 161.507 578.168C161.203 578.589 161.051 579.173 161.051 579.92C161.051 580.656 161.203 581.235 161.507 581.656C161.811 582.072 162.232 582.28 162.771 582.28ZM168.381 584V575.824H170.381V576.584C170.642 576.253 170.935 576.013 171.261 575.864C171.591 575.709 171.965 575.632 172.381 575.632C172.866 575.632 173.282 575.731 173.629 575.928C173.975 576.125 174.245 576.413 174.437 576.792C174.709 576.419 175.058 576.133 175.485 575.936C175.911 575.733 176.394 575.632 176.933 575.632C177.935 575.632 178.693 575.901 179.205 576.44C179.717 576.979 179.973 577.779 179.973 578.84V584H177.981V579.528C177.981 578.845 177.869 578.344 177.645 578.024C177.421 577.699 177.074 577.536 176.605 577.536C176.285 577.536 176.018 577.608 175.805 577.752C175.597 577.896 175.439 578.115 175.333 578.408C175.226 578.696 175.173 579.061 175.173 579.504V584H173.181V579.528C173.181 578.84 173.071 578.336 172.853 578.016C172.634 577.696 172.287 577.536 171.813 577.536C171.327 577.536 170.967 577.693 170.733 578.008C170.498 578.323 170.381 578.811 170.381 579.472V584H168.381ZM184.828 584.192C183.937 584.192 183.231 583.952 182.708 583.472C182.191 582.987 181.932 582.331 181.932 581.504C181.932 580.971 182.065 580.504 182.332 580.104C182.604 579.699 182.98 579.387 183.46 579.168C183.945 578.944 184.511 578.832 185.156 578.832C185.513 578.832 185.857 578.867 186.188 578.936C186.524 579 186.817 579.093 187.068 579.216V578.704C187.068 578.245 186.937 577.901 186.676 577.672C186.42 577.437 186.041 577.32 185.54 577.32C185.14 577.32 184.729 577.392 184.308 577.536C183.887 577.68 183.46 577.893 183.028 578.176L182.428 576.6C182.897 576.291 183.42 576.053 183.996 575.888C184.572 575.717 185.153 575.632 185.74 575.632C186.839 575.632 187.66 575.893 188.204 576.416C188.748 576.933 189.02 577.707 189.02 578.736V584H187.068V583.344C186.791 583.621 186.46 583.832 186.076 583.976C185.697 584.12 185.281 584.192 184.828 584.192ZM185.292 582.504C185.623 582.504 185.94 582.44 186.244 582.312C186.553 582.179 186.828 581.992 187.068 581.752V580.784C186.839 580.672 186.583 580.587 186.3 580.528C186.023 580.464 185.745 580.432 185.468 580.432C184.972 580.432 184.58 580.528 184.292 580.72C184.009 580.907 183.868 581.168 183.868 581.504C183.868 581.819 183.993 582.064 184.244 582.24C184.495 582.416 184.844 582.504 185.292 582.504ZM191.412 584V575.824H193.412V576.704C193.561 576.389 193.796 576.133 194.116 575.936C194.436 575.733 194.772 575.632 195.124 575.632C195.705 575.632 196.196 575.832 196.596 576.232L196.316 578.064C196.097 577.883 195.884 577.755 195.676 577.68C195.468 577.605 195.239 577.568 194.988 577.568C194.657 577.568 194.375 577.645 194.14 577.8C193.905 577.955 193.724 578.179 193.596 578.472C193.473 578.765 193.412 579.117 193.412 579.528V584H191.412ZM202.148 584V572.8H209.596V574.768H204.22V577.232H207.66V579.2H204.22V584H202.148ZM213.364 584.192C212.212 584.192 211.303 583.811 210.636 583.048C209.97 582.285 209.636 581.243 209.636 579.92C209.636 579.045 209.788 578.288 210.092 577.648C210.396 577.003 210.826 576.507 211.38 576.16C211.94 575.808 212.602 575.632 213.364 575.632C214.122 575.632 214.778 575.805 215.332 576.152C215.887 576.499 216.314 576.992 216.612 577.632C216.911 578.272 217.06 579.032 217.06 579.912C217.06 580.797 216.911 581.56 216.612 582.2C216.319 582.84 215.895 583.333 215.34 583.68C214.786 584.021 214.127 584.192 213.364 584.192ZM213.364 582.28C213.903 582.28 214.322 582.072 214.62 581.656C214.919 581.24 215.068 580.659 215.068 579.912C215.068 579.165 214.916 578.584 214.612 578.168C214.314 577.747 213.898 577.536 213.364 577.536C212.826 577.536 212.404 577.747 212.1 578.168C211.796 578.589 211.644 579.173 211.644 579.92C211.644 580.656 211.796 581.235 212.1 581.656C212.404 582.072 212.826 582.28 213.364 582.28ZM221.374 584.192C220.724 584.192 220.236 584.013 219.91 583.656C219.585 583.299 219.422 582.765 219.422 582.056V577.576H218.23V575.824H219.422V573.4L221.406 572.448V575.824H223.262V577.576H221.406V581.696C221.406 581.952 221.457 582.141 221.558 582.264C221.665 582.387 221.83 582.448 222.054 582.448C222.449 582.448 222.881 582.325 223.35 582.08L223.118 583.824C222.873 583.947 222.606 584.037 222.318 584.096C222.03 584.16 221.716 584.192 221.374 584.192ZM228.489 584.192C227.337 584.192 226.428 583.811 225.761 583.048C225.095 582.285 224.761 581.243 224.761 579.92C224.761 579.045 224.913 578.288 225.217 577.648C225.521 577.003 225.951 576.507 226.505 576.16C227.065 575.808 227.727 575.632 228.489 575.632C229.247 575.632 229.903 575.805 230.457 576.152C231.012 576.499 231.439 576.992 231.737 577.632C232.036 578.272 232.185 579.032 232.185 579.912C232.185 580.797 232.036 581.56 231.737 582.2C231.444 582.84 231.02 583.333 230.465 583.68C229.911 584.021 229.252 584.192 228.489 584.192ZM228.489 582.28C229.028 582.28 229.447 582.072 229.745 581.656C230.044 581.24 230.193 580.659 230.193 579.912C230.193 579.165 230.041 578.584 229.737 578.168C229.439 577.747 229.023 577.536 228.489 577.536C227.951 577.536 227.529 577.747 227.225 578.168C226.921 578.589 226.769 579.173 226.769 579.92C226.769 580.656 226.921 581.235 227.225 581.656C227.529 582.072 227.951 582.28 228.489 582.28Z" fill="white"/>
<rect x="28.5" y="628.5" width="326" height="55" rx="15.5" fill="#F2F2F7"/>
<rect x="28.5" y="628.5" width="326" height="55" rx="15.5" stroke="#FC0230"/>
<path d="M147.101 660.192C146.402 660.192 145.768 660.069 145.197 659.824C144.626 659.579 144.136 659.232 143.725 658.784C143.32 658.331 143.016 657.797 142.813 657.184L144.693 656.488C144.933 657 145.266 657.421 145.693 657.752C146.125 658.077 146.61 658.24 147.149 658.24C147.72 658.24 148.173 658.12 148.509 657.88C148.85 657.64 149.021 657.291 149.021 656.832C149.021 656.517 148.92 656.256 148.717 656.048C148.52 655.835 148.25 655.653 147.909 655.504C147.573 655.349 147.192 655.2 146.765 655.056C146.354 654.917 145.941 654.763 145.525 654.592C145.109 654.421 144.728 654.213 144.381 653.968C144.034 653.717 143.754 653.403 143.541 653.024C143.333 652.645 143.229 652.181 143.229 651.632C143.229 651.083 143.376 650.579 143.669 650.12C143.962 649.661 144.386 649.296 144.941 649.024C145.501 648.747 146.178 648.608 146.973 648.608C147.624 648.608 148.2 648.72 148.701 648.944C149.208 649.163 149.626 649.461 149.957 649.84C150.288 650.219 150.517 650.648 150.645 651.128L148.789 651.744C148.64 651.408 148.41 651.128 148.101 650.904C147.797 650.675 147.384 650.56 146.861 650.56C146.37 650.56 145.989 650.656 145.717 650.848C145.445 651.04 145.309 651.312 145.309 651.664C145.309 651.904 145.4 652.109 145.581 652.28C145.768 652.445 146.016 652.595 146.325 652.728C146.64 652.861 146.994 652.997 147.389 653.136C147.832 653.285 148.272 653.456 148.709 653.648C149.152 653.835 149.552 654.064 149.909 654.336C150.272 654.608 150.562 654.947 150.781 655.352C151 655.752 151.109 656.243 151.109 656.824C151.109 657.539 150.93 658.147 150.573 658.648C150.221 659.149 149.744 659.533 149.141 659.8C148.538 660.061 147.858 660.192 147.101 660.192ZM155.977 660.192C155.066 660.192 154.359 659.909 153.858 659.344C153.356 658.773 153.106 657.968 153.106 656.928V651.824H155.106V656.304C155.106 656.992 155.223 657.493 155.458 657.808C155.692 658.123 156.063 658.28 156.57 658.28C157.114 658.28 157.514 658.123 157.77 657.808C158.031 657.488 158.162 656.997 158.162 656.336V651.824H160.154V660H158.162V659.232C157.911 659.552 157.602 659.792 157.234 659.952C156.871 660.112 156.452 660.192 155.977 660.192ZM166.366 660.192C165.993 660.192 165.67 660.125 165.398 659.992C165.132 659.859 164.884 659.643 164.654 659.344V660H162.654V649.352L164.654 648.448V652.464C164.862 652.197 165.118 651.992 165.422 651.848C165.732 651.704 166.068 651.632 166.43 651.632C167.108 651.632 167.7 651.811 168.206 652.168C168.713 652.525 169.108 653.027 169.39 653.672C169.678 654.312 169.822 655.056 169.822 655.904C169.822 657.253 169.516 658.307 168.902 659.064C168.294 659.816 167.449 660.192 166.366 660.192ZM166.126 658.28C166.67 658.28 167.086 658.075 167.374 657.664C167.668 657.253 167.814 656.667 167.814 655.904C167.814 655.141 167.668 654.557 167.374 654.152C167.086 653.741 166.67 653.536 166.126 653.536C165.828 653.536 165.545 653.603 165.278 653.736C165.012 653.864 164.804 654.037 164.654 654.256V657.56C164.82 657.795 165.022 657.973 165.262 658.096C165.502 658.219 165.79 658.28 166.126 658.28ZM171.905 660V651.824H173.905V660H171.905ZM172.905 650.8C172.585 650.8 172.307 650.685 172.073 650.456C171.843 650.221 171.729 649.944 171.729 649.624C171.729 649.304 171.843 649.032 172.073 648.808C172.302 648.579 172.579 648.464 172.905 648.464C173.241 648.464 173.521 648.576 173.745 648.8C173.969 649.024 174.081 649.299 174.081 649.624C174.081 649.949 173.966 650.227 173.737 650.456C173.513 650.685 173.235 650.8 172.905 650.8ZM176.42 660V651.824H178.42V652.704C178.569 652.389 178.804 652.133 179.124 651.936C179.444 651.733 179.78 651.632 180.132 651.632C180.713 651.632 181.204 651.832 181.604 652.232L181.324 654.064C181.105 653.883 180.892 653.755 180.684 653.68C180.476 653.605 180.247 653.568 179.996 653.568C179.665 653.568 179.383 653.645 179.148 653.8C178.913 653.955 178.732 654.179 178.604 654.472C178.481 654.765 178.42 655.117 178.42 655.528V660H176.42ZM187.092 660V651.824H189.092V660H187.092ZM188.092 650.8C187.772 650.8 187.495 650.685 187.26 650.456C187.031 650.221 186.916 649.944 186.916 649.624C186.916 649.304 187.031 649.032 187.26 648.808C187.489 648.579 187.767 648.464 188.092 648.464C188.428 648.464 188.708 648.576 188.932 648.8C189.156 649.024 189.268 649.299 189.268 649.624C189.268 649.949 189.153 650.227 188.924 650.456C188.7 650.685 188.423 650.8 188.092 650.8ZM191.607 660V651.824H193.607V652.584C193.869 652.253 194.162 652.013 194.487 651.864C194.818 651.709 195.191 651.632 195.607 651.632C196.093 651.632 196.509 651.731 196.855 651.928C197.202 652.125 197.471 652.413 197.663 652.792C197.935 652.419 198.285 652.133 198.711 651.936C199.138 651.733 199.621 651.632 200.159 651.632C201.162 651.632 201.919 651.901 202.431 652.44C202.943 652.979 203.199 653.779 203.199 654.84V660H201.207V655.528C201.207 654.845 201.095 654.344 200.871 654.024C200.647 653.699 200.301 653.536 199.831 653.536C199.511 653.536 199.245 653.608 199.031 653.752C198.823 653.896 198.666 654.115 198.559 654.408C198.453 654.696 198.399 655.061 198.399 655.504V660H196.407V655.528C196.407 654.84 196.298 654.336 196.079 654.016C195.861 653.696 195.514 653.536 195.039 653.536C194.554 653.536 194.194 653.693 193.959 654.008C193.725 654.323 193.607 654.811 193.607 655.472V660H191.607ZM208.055 660.192C207.164 660.192 206.457 659.952 205.935 659.472C205.417 658.987 205.159 658.331 205.159 657.504C205.159 656.971 205.292 656.504 205.559 656.104C205.831 655.699 206.207 655.387 206.687 655.168C207.172 654.944 207.737 654.832 208.383 654.832C208.74 654.832 209.084 654.867 209.415 654.936C209.751 655 210.044 655.093 210.295 655.216V654.704C210.295 654.245 210.164 653.901 209.903 653.672C209.647 653.437 209.268 653.32 208.767 653.32C208.367 653.32 207.956 653.392 207.535 653.536C207.113 653.68 206.687 653.893 206.255 654.176L205.655 652.6C206.124 652.291 206.647 652.053 207.223 651.888C207.799 651.717 208.38 651.632 208.967 651.632C210.065 651.632 210.887 651.893 211.431 652.416C211.975 652.933 212.247 653.707 212.247 654.736V660H210.295V659.344C210.017 659.621 209.687 659.832 209.303 659.976C208.924 660.12 208.508 660.192 208.055 660.192ZM208.519 658.504C208.849 658.504 209.167 658.44 209.471 658.312C209.78 658.179 210.055 657.992 210.295 657.752V656.784C210.065 656.672 209.809 656.587 209.527 656.528C209.249 656.464 208.972 656.432 208.695 656.432C208.199 656.432 207.807 656.528 207.519 656.72C207.236 656.907 207.095 657.168 207.095 657.504C207.095 657.819 207.22 658.064 207.471 658.24C207.721 658.416 208.071 658.504 208.519 658.504ZM217.511 663.408L216.407 661.736C217.186 661.677 217.788 661.589 218.215 661.472C218.647 661.355 218.948 661.187 219.119 660.968C219.29 660.749 219.375 660.464 219.375 660.112V659.52C218.959 659.968 218.372 660.192 217.615 660.192C216.906 660.192 216.295 660.021 215.783 659.68C215.271 659.333 214.876 658.84 214.599 658.2C214.327 657.555 214.191 656.789 214.191 655.904C214.191 655.04 214.332 654.288 214.615 653.648C214.903 653.008 215.303 652.512 215.815 652.16C216.332 651.808 216.938 651.632 217.631 651.632C217.994 651.632 218.324 651.688 218.623 651.8C218.927 651.912 219.178 652.075 219.375 652.288V651.824H221.367V659.264C221.367 659.989 221.3 660.603 221.167 661.104C221.034 661.605 220.815 662.016 220.511 662.336C220.212 662.656 219.818 662.899 219.327 663.064C218.836 663.235 218.231 663.349 217.511 663.408ZM217.943 658.28C218.226 658.28 218.49 658.216 218.735 658.088C218.986 657.955 219.199 657.776 219.375 657.552V654.256C219.226 654.048 219.02 653.877 218.759 653.744C218.498 653.605 218.234 653.536 217.967 653.536C217.391 653.536 216.951 653.739 216.647 654.144C216.348 654.544 216.199 655.131 216.199 655.904C216.199 656.405 216.266 656.835 216.399 657.192C216.538 657.544 216.738 657.813 216.999 658C217.26 658.187 217.575 658.28 217.943 658.28ZM227.069 660.192C226.285 660.192 225.608 660.016 225.037 659.664C224.472 659.312 224.034 658.816 223.725 658.176C223.421 657.531 223.269 656.773 223.269 655.904C223.269 655.024 223.424 654.264 223.733 653.624C224.048 652.984 224.488 652.493 225.053 652.152C225.624 651.805 226.296 651.632 227.069 651.632C227.73 651.632 228.33 651.771 228.869 652.048C229.408 652.325 229.837 652.752 230.157 653.328C230.477 653.899 230.637 654.627 230.637 655.512C230.637 655.651 230.632 655.821 230.621 656.024C230.616 656.221 230.602 656.421 230.581 656.624H225.245C225.266 656.997 225.352 657.325 225.501 657.608C225.656 657.885 225.866 658.101 226.133 658.256C226.4 658.411 226.714 658.488 227.077 658.488C227.466 658.488 227.805 658.424 228.093 658.296C228.381 658.163 228.653 657.952 228.909 657.664L230.061 658.856C229.709 659.256 229.285 659.579 228.789 659.824C228.293 660.069 227.72 660.192 227.069 660.192ZM225.253 655.064H228.701C228.674 654.707 228.594 654.4 228.461 654.144C228.328 653.883 228.141 653.683 227.901 653.544C227.661 653.405 227.37 653.336 227.029 653.336C226.56 653.336 226.16 653.48 225.829 653.768C225.498 654.056 225.306 654.488 225.253 655.064ZM232.654 660V651.824H234.654V652.608C234.916 652.283 235.228 652.04 235.59 651.88C235.958 651.715 236.377 651.632 236.846 651.632C237.758 651.632 238.462 651.915 238.958 652.48C239.454 653.04 239.702 653.848 239.702 654.904V660H237.71V655.52C237.71 654.832 237.59 654.331 237.35 654.016C237.116 653.696 236.748 653.536 236.246 653.536C235.702 653.536 235.3 653.696 235.038 654.016C234.782 654.331 234.654 654.821 234.654 655.488V660H232.654Z" fill="#FC0230"/>
<path d="M169.867 722.24C169.014 722.24 168.237 722.093 167.537 721.8C166.844 721.5 166.25 721.087 165.757 720.56C165.27 720.027 164.907 719.407 164.667 718.7L166.777 717.91C167.07 718.55 167.49 719.07 168.037 719.47C168.584 719.863 169.214 720.06 169.927 720.06C170.674 720.06 171.274 719.893 171.727 719.56C172.18 719.227 172.407 718.74 172.407 718.1C172.407 717.66 172.274 717.293 172.007 717C171.74 716.7 171.384 716.447 170.937 716.24C170.49 716.027 170 715.827 169.467 715.64C168.967 715.46 168.46 715.263 167.947 715.05C167.434 714.837 166.967 714.577 166.547 714.27C166.127 713.957 165.787 713.573 165.527 713.12C165.274 712.66 165.147 712.1 165.147 711.44C165.147 710.773 165.327 710.163 165.687 709.61C166.047 709.05 166.567 708.603 167.247 708.27C167.927 707.93 168.747 707.76 169.707 707.76C170.5 707.76 171.2 707.89 171.807 708.15C172.414 708.403 172.914 708.753 173.307 709.2C173.7 709.64 173.977 710.137 174.137 710.69L172.057 711.38C171.877 710.973 171.584 710.63 171.177 710.35C170.777 710.063 170.24 709.92 169.567 709.92C168.914 709.92 168.404 710.057 168.037 710.33C167.67 710.597 167.487 710.973 167.487 711.46C167.487 711.807 167.61 712.1 167.857 712.34C168.104 712.573 168.434 712.78 168.847 712.96C169.267 713.14 169.727 713.32 170.227 713.5C170.76 713.693 171.29 713.907 171.817 714.14C172.35 714.373 172.837 714.66 173.277 715C173.724 715.34 174.077 715.76 174.337 716.26C174.604 716.76 174.737 717.37 174.737 718.09C174.737 718.97 174.524 719.72 174.097 720.34C173.67 720.953 173.087 721.423 172.347 721.75C171.614 722.077 170.787 722.24 169.867 722.24ZM180.475 722.24C179.355 722.24 178.475 721.937 177.835 721.33C177.195 720.723 176.875 719.9 176.875 718.86C176.875 718.18 177.038 717.59 177.365 717.09C177.692 716.583 178.152 716.193 178.745 715.92C179.338 715.64 180.032 715.5 180.825 715.5C181.292 715.5 181.735 715.547 182.155 715.64C182.582 715.727 182.962 715.86 183.295 716.04V715.38C183.295 714.727 183.128 714.243 182.795 713.93C182.462 713.61 181.958 713.45 181.285 713.45C180.792 713.45 180.282 713.54 179.755 713.72C179.228 713.9 178.712 714.16 178.205 714.5L177.535 712.71C178.095 712.337 178.725 712.05 179.425 711.85C180.125 711.643 180.828 711.54 181.535 711.54C182.848 711.54 183.832 711.86 184.485 712.5C185.145 713.133 185.475 714.087 185.475 715.36V722H183.295V721.14C182.935 721.493 182.512 721.767 182.025 721.96C181.538 722.147 181.022 722.24 180.475 722.24ZM180.935 720.33C181.368 720.33 181.788 720.237 182.195 720.05C182.608 719.863 182.975 719.597 183.295 719.25V717.86C182.995 717.693 182.655 717.567 182.275 717.48C181.902 717.387 181.535 717.34 181.175 717.34C180.508 717.34 179.985 717.477 179.605 717.75C179.225 718.017 179.035 718.387 179.035 718.86C179.035 719.313 179.202 719.673 179.535 719.94C179.868 720.2 180.335 720.33 180.935 720.33ZM188.513 722V708.59L190.753 707.56V722H188.513ZM196.958 722.24C196.184 722.24 195.601 722.02 195.208 721.58C194.814 721.14 194.618 720.497 194.618 719.65V713.75H193.068V711.78H194.618V708.63L196.858 707.56V711.78H199.238V713.75H196.858V719.16C196.858 719.527 196.928 719.8 197.068 719.98C197.214 720.153 197.438 720.24 197.738 720.24C198.224 720.24 198.754 720.08 199.328 719.76L199.078 721.78C198.764 721.933 198.434 722.047 198.087 722.12C197.741 722.2 197.364 722.24 196.958 722.24ZM204.655 722.24C203.535 722.24 202.655 721.937 202.015 721.33C201.375 720.723 201.055 719.9 201.055 718.86C201.055 718.18 201.218 717.59 201.545 717.09C201.871 716.583 202.331 716.193 202.925 715.92C203.518 715.64 204.211 715.5 205.005 715.5C205.471 715.5 205.915 715.547 206.335 715.64C206.761 715.727 207.141 715.86 207.475 716.04V715.38C207.475 714.727 207.308 714.243 206.975 713.93C206.641 713.61 206.138 713.45 205.465 713.45C204.971 713.45 204.461 713.54 203.935 713.72C203.408 713.9 202.891 714.16 202.385 714.5L201.715 712.71C202.275 712.337 202.905 712.05 203.605 711.85C204.305 711.643 205.008 711.54 205.715 711.54C207.028 711.54 208.011 711.86 208.665 712.5C209.325 713.133 209.655 714.087 209.655 715.36V722H207.475V721.14C207.115 721.493 206.691 721.767 206.205 721.96C205.718 722.147 205.201 722.24 204.655 722.24ZM205.115 720.33C205.548 720.33 205.968 720.237 206.375 720.05C206.788 719.863 207.155 719.597 207.475 719.25V717.86C207.175 717.693 206.835 717.567 206.455 717.48C206.081 717.387 205.715 717.34 205.355 717.34C204.688 717.34 204.165 717.477 203.785 717.75C203.405 718.017 203.215 718.387 203.215 718.86C203.215 719.313 203.381 719.673 203.715 719.94C204.048 720.2 204.515 720.33 205.115 720.33ZM212.748 722V711.78H214.988V712.96C215.188 712.52 215.488 712.173 215.888 711.92C216.295 711.667 216.742 711.54 217.228 711.54C217.915 711.54 218.495 711.763 218.968 712.21L218.658 714.28C218.405 714.08 218.152 713.937 217.898 713.85C217.645 713.763 217.365 713.72 217.058 713.72C216.632 713.72 216.265 713.827 215.958 714.04C215.652 714.253 215.412 714.557 215.238 714.95C215.072 715.343 214.988 715.81 214.988 716.35V722H212.748Z" fill="#81809E"/>
</g>
<rect x="4" y="4" width="383" height="819" rx="32" stroke="#CAC4D0" stroke-width="8"/>
<defs>
<linearGradient id="paint0_linear_96_2261" x1="195.5" y1="8" x2="195.5" y2="819" gradientUnits="userSpaceOnUse">
<stop stop-color="#FFFDFD"/>
<stop offset="1" stop-color="#E2E2E2"/>
</linearGradient>
<clipPath id="clip0_96_2261">
<rect x="8" y="8" width="375" height="811" rx="28" fill="white"/>
</clipPath>
</defs>
</svg>
